<svg id="Layer_1" data-name="Layer 1" xmlns="http://www.w3.org/2000/svg" viewBox="0 0 24 24"><defs><style>.cls-1{fill:#fff;}.cls-2{fill:none;}</style></defs><g id="vuesax_outline_speedometer" data-name="vuesax outline speedometer"><g id="speedometer"><path id="Vector" class="cls-1" d="M32,33a.77.77,0,0,1-.53-.21.74.74,0,0,1,0-1h0a9.25,9.25,0,1,0-13.22,0,.75.75,0,0,1-1.07,1,10.75,10.75,0,1,1,18.44-7.51,10.65,10.65,0,0,1-3.08,7.53A.67.67,0,0,1,32,33Z" transform="translate(-12.89 -12.79)"/><path id="Vector-2" class="cls-1" d="M24.89,35A4.13,4.13,0,1,1,29,30.91,4.12,4.12,0,0,1,24.89,35Zm0-6.75a2.62,2.62,0,1,0,2.62,2.62h0A2.62,2.62,0,0,0,24.89,28.29Z" transform="translate(-12.89 -12.79)"/><path id="Vector-3" class="cls-1" d="M28.89,25.54h-.75a1.5,1.5,0,0,1-1.5-1.5v-.75a2.25,2.25,0,1,1,2.25,2.25Zm0-3a.77.77,0,0,0-.75.75V24h.75a.75.75,0,0,0,0-1.5Z" transform="translate(-12.89 -12.79)"/><path id="Vector-4" class="cls-2" d="M12.89,12.79h24v24h-24Z" transform="translate(-12.89 -12.79)"/></g></g></svg>