<svg id="Layer_1" data-name="Layer 1" xmlns="http://www.w3.org/2000/svg" viewBox="0 0 18.5 13.62"><defs><style>.cls-1{fill:#fff;}</style></defs><g id="vuesax_outline_arrow-left" data-name="vuesax outline arrow-left"><g id="arrow-left"><path id="Vector" class="cls-1" d="M22.46,31.61a.75.75,0,0,1-.53-.22l-6.07-6.07a.75.75,0,0,1,0-1.06l6.07-6.07a.75.75,0,0,1,1.06,0,.74.74,0,0,1,0,1l-5.54,5.54L23,30.33a.75.75,0,0,1,0,1.06A.71.71,0,0,1,22.46,31.61Z" transform="translate(-15.65 -17.99)"/><path id="Vector-2" class="cls-1" d="M33.39,25.54H16.56a.76.76,0,0,1-.75-.75.77.77,0,0,1,.75-.75H33.39a.76.76,0,0,1,.75.75A.74.74,0,0,1,33.39,25.54Z" transform="translate(-15.65 -17.99)"/></g></g></svg>