<svg id="Layer_1" data-name="Layer 1" xmlns="http://www.w3.org/2000/svg" viewBox="0 0 24 24"><defs><style>.cls-1{fill:none;}</style></defs><g id="bag"><path id="Vector" d="M5.18,6.48a.79.79,0,0,1-.53-.22.75.75,0,0,1,0-1.06L8.28,1.57a.76.76,0,0,1,1.06,0,.75.75,0,0,1,0,1.06l0,0L5.71,6.26A.75.75,0,0,1,5.18,6.48Z" transform="translate(0.01 -0.1)"/><path id="Vector-2" d="M18.8,6.48a.77.77,0,0,1-.53-.22L14.64,2.63a.76.76,0,0,1,0-1.06.75.75,0,0,1,1,0L19.33,5.2a.75.75,0,0,1-.53,1.28Z" transform="translate(0.01 -0.1)"/><path id="Vector-3" d="M20.2,10.7H4a2.7,2.7,0,0,1-2.08-.57A2.91,2.91,0,0,1,1.24,8c0-2.75,2-2.75,3-2.75H19.77c1,0,3,0,3,2.75a2.83,2.83,0,0,1-.67,2.18A2.47,2.47,0,0,1,20.2,10.7Zm-16-1.5H20c.45,0,.87,0,1-.13s.22-.31.22-1.12c0-1.13-.28-1.25-1.47-1.25H4.21C3,6.7,2.74,6.82,2.74,8c0,.81.16,1,.22,1.12A2.05,2.05,0,0,0,4,9.2Z" transform="translate(0.01 -0.1)"/><path id="Vector-4" d="M9.75,18.4A.76.76,0,0,1,9,17.65V14.1a.76.76,0,0,1,.75-.75.75.75,0,0,1,.75.75v3.55a.75.75,0,0,1-.74.75Z" transform="translate(0.01 -0.1)"/><path id="Vector-5" d="M14.35,18.4a.76.76,0,0,1-.75-.75V14.1a.76.76,0,0,1,.75-.75.75.75,0,0,1,.75.75v3.55a.75.75,0,0,1-.74.75Z" transform="translate(0.01 -0.1)"/><path id="Vector-6" d="M14.88,22.85h-6c-3.58,0-4.38-2.13-4.69-4L2.75,10.22a.75.75,0,0,1,.65-.84.74.74,0,0,1,.83.6l1.41,8.64c.29,1.77.89,2.73,3.21,2.73h6c2.57,0,2.86-.9,3.19-2.64L19.75,10a.74.74,0,0,1,.86-.59h0a.75.75,0,0,1,.6.87h0L19.54,19C19.15,21,18.5,22.85,14.88,22.85Z" transform="translate(0.01 -0.1)"/><path id="Vector-7" class="cls-1" d="M0,.1H24v24H0Z" transform="translate(0.01 -0.1)"/></g></svg>