<svg id="Layer_1" data-name="Layer 1" xmlns="http://www.w3.org/2000/svg" viewBox="0 0 24 24"><defs><style>.cls-1{fill:#fff;}.cls-2{fill:none;}</style></defs><g id="vuesax_outline_bag" data-name="vuesax outline bag"><g id="bag"><path id="Vector" class="cls-1" d="M18.08,19.17a.75.75,0,0,1-.53-1.28l3.63-3.63a.75.75,0,0,1,1.1,1l0,0L18.61,19A.75.75,0,0,1,18.08,19.17Z" transform="translate(-12.89 -12.79)"/><path id="Vector-2" class="cls-1" d="M31.7,19.17a.71.71,0,0,1-.53-.22l-3.63-3.63a.75.75,0,0,1,1.06-1.06l3.63,3.63a.75.75,0,0,1-.53,1.28Z" transform="translate(-12.89 -12.79)"/><path id="Vector-3" class="cls-1" d="M33.1,23.39H16.89a2.7,2.7,0,0,1-2.08-.57,2.91,2.91,0,0,1-.67-2.18c0-2.75,2-2.75,3-2.75H32.67c1,0,3,0,3,2.75A2.83,2.83,0,0,1,35,22.82,2.44,2.44,0,0,1,33.1,23.39Zm-16-1.5H32.9c.45,0,.87,0,1-.13s.22-.31.22-1.12c0-1.13-.28-1.25-1.47-1.25H17.11c-1.19,0-1.47.12-1.47,1.25,0,.81.16,1.05.22,1.12a1.94,1.94,0,0,0,1,.13Z" transform="translate(-12.89 -12.79)"/><path id="Vector-4" class="cls-1" d="M22.65,31.09a.76.76,0,0,1-.75-.75V26.79a.77.77,0,0,1,.75-.75.76.76,0,0,1,.75.75v3.55a.74.74,0,0,1-.75.75Z" transform="translate(-12.89 -12.79)"/><path id="Vector-5" class="cls-1" d="M27.25,31.09a.76.76,0,0,1-.75-.75V26.79a.77.77,0,0,1,.75-.75.76.76,0,0,1,.75.75v3.55a.74.74,0,0,1-.75.75Z" transform="translate(-12.89 -12.79)"/><path id="Vector-6" class="cls-1" d="M27.78,35.54h-6c-3.58,0-4.38-2.13-4.69-4l-1.41-8.65a.76.76,0,0,1,.65-.84.74.74,0,0,1,.83.6l1.41,8.64c.29,1.77.89,2.73,3.21,2.73h6c2.57,0,2.86-.9,3.19-2.64l1.68-8.75a.74.74,0,0,1,.86-.59h0a.74.74,0,0,1,.59.87h0l-1.68,8.75C32.05,33.72,31.4,35.54,27.78,35.54Z" transform="translate(-12.89 -12.79)"/><path id="Vector-7" class="cls-2" d="M12.89,12.79h24v24h-24Z" transform="translate(-12.89 -12.79)"/></g></g></svg>