<svg id="Layer_1" data-name="Layer 1" xmlns="http://www.w3.org/2000/svg" viewBox="0 0 33.94 33.94"><defs><style>.cls-1{fill:#fff;}.cls-2{fill:none;}</style></defs><g id="vuesax_outline_add-circle" data-name="vuesax outline add-circle"><g id="add-circle"><path id="Vector" class="cls-1" d="M17.29,32.39a10.75,10.75,0,1,1,15.2,0A10.74,10.74,0,0,1,17.29,32.39ZM31.43,18.25a9.25,9.25,0,1,0,0,13.08A9.25,9.25,0,0,0,31.43,18.25Z" transform="translate(-7.92 -7.82)"/><path id="Vector-2" class="cls-1" d="M27.19,28.15l-5.66-5.66a.75.75,0,0,1,1.06-1.06l5.66,5.66a.75.75,0,0,1-1.06,1.06Z" transform="translate(-7.92 -7.82)"/><path id="Vector-3" class="cls-1" d="M21.53,28.15a.75.75,0,0,1,0-1.06l5.66-5.66a.75.75,0,0,1,1.06,1.06l-5.66,5.66A.75.75,0,0,1,21.53,28.15Z" transform="translate(-7.92 -7.82)"/><path id="Vector-4" class="cls-2" d="M24.89,7.82l17,17-17,17-17-17Z" transform="translate(-7.92 -7.82)"/></g></g></svg>