<svg id="Layer_1" data-name="Layer 1" xmlns="http://www.w3.org/2000/svg" viewBox="0 0 24 24"><defs><style>.cls-1{fill:#fff;}.cls-2{fill:none;}</style></defs><g id="vuesax_outline_home" data-name="vuesax outline home"><g id="home"><path id="Vector" class="cls-1" d="M24.89,31.54a.76.76,0,0,1-.75-.75v-3a.77.77,0,0,1,.75-.75.76.76,0,0,1,.75.75v3A.74.74,0,0,1,24.89,31.54Z" transform="translate(-12.89 -12.79)"/><path id="Vector-2" class="cls-1" d="M30.49,35.35H19.29a3.91,3.91,0,0,1-3.78-3.19l-1.33-8a4.13,4.13,0,0,1,1.38-3.62L22.49,15a4,4,0,0,1,4.8,0l6.93,5.54a4.2,4.2,0,0,1,1.38,3.62l-1.33,8A4,4,0,0,1,30.49,35.35ZM24.88,15.72a2.37,2.37,0,0,0-1.45.47L16.5,21.75a2.72,2.72,0,0,0-.84,2.2l1.33,8a2.45,2.45,0,0,0,2.3,1.94h11.2a2.44,2.44,0,0,0,2.3-2l1.33-8a2.72,2.72,0,0,0-.84-2.2L26.35,16.2A2.36,2.36,0,0,0,24.88,15.72Z" transform="translate(-12.89 -12.79)"/><path id="Vector-3" class="cls-2" d="M12.89,12.79h24v24h-24Z" transform="translate(-12.89 -12.79)"/></g></g></svg>