<?xml version="1.0" encoding="utf-8"?>
<!-- Generator: Adobe Illustrator 25.0.0, SVG Export Plug-In . SVG Version: 6.00 Build 0)  -->
<svg version="1.1" id="Layer_1" xmlns="http://www.w3.org/2000/svg" xmlns:xlink="http://www.w3.org/1999/xlink" x="0px" y="0px"
	 viewBox="0 0 24 24" style="enable-background:new 0 0 24 24;" xml:space="preserve">
<style type="text/css">
	.st0{fill:none;}
</style>
<g id="category">
	<path id="Vector" d="M6.99,10.85h-2c-1.85,0.22-3.53-1.11-3.75-2.97c-0.03-0.26-0.03-0.52,0-0.78v-2C1.03,3.25,2.36,1.57,4.21,1.35
		c0.26-0.03,0.52-0.03,0.78,0h2c1.85-0.22,3.53,1.11,3.75,2.97c0.03,0.26,0.03,0.52,0,0.78v2c0.22,1.85-1.11,3.53-2.97,3.75
		C7.52,10.88,7.25,10.88,6.99,10.85z M4.99,2.85c-1.58,0-2.25,0.67-2.25,2.25v2c0,1.58,0.67,2.25,2.25,2.25h2
		c1.58,0,2.25-0.67,2.25-2.25v-2c0-1.58-0.67-2.25-2.25-2.25H4.99z"/>
	<path id="Vector-2" d="M18.99,10.85h-2c-1.85,0.22-3.53-1.11-3.75-2.97c-0.03-0.26-0.03-0.52,0-0.78v-2
		c-0.22-1.85,1.11-3.53,2.97-3.75c0.26-0.03,0.52-0.03,0.78,0h2c1.85-0.22,3.53,1.11,3.75,2.97c0.03,0.26,0.03,0.52,0,0.78v2
		c0.22,1.85-1.11,3.53-2.97,3.75C19.52,10.88,19.25,10.88,18.99,10.85z M16.99,2.85c-1.58,0-2.25,0.67-2.25,2.25v2
		c0,1.58,0.67,2.25,2.25,2.25h2c1.58,0,2.25-0.67,2.25-2.25v-2c0-1.58-0.67-2.25-2.25-2.25H16.99z"/>
	<path id="Vector-3" d="M18.99,22.85h-2c-1.85,0.22-3.53-1.11-3.75-2.97c-0.03-0.26-0.03-0.52,0-0.78v-2
		c-0.22-1.85,1.11-3.53,2.97-3.75c0.26-0.03,0.52-0.03,0.78,0h2c1.85-0.22,3.53,1.11,3.75,2.97c0.03,0.26,0.03,0.52,0,0.78v2
		c0.22,1.85-1.11,3.53-2.97,3.75C19.52,22.88,19.25,22.88,18.99,22.85z M16.99,14.85c-1.58,0-2.25,0.67-2.25,2.25v2
		c0,1.58,0.67,2.25,2.25,2.25h2c1.58,0,2.25-0.67,2.25-2.25v-2c0-1.58-0.67-2.25-2.25-2.25H16.99z"/>
	<path id="Vector-4" d="M6.99,22.85h-2c-1.85,0.22-3.53-1.11-3.75-2.97c-0.03-0.26-0.03-0.52,0-0.78v-2
		c-0.22-1.85,1.11-3.53,2.97-3.75c0.26-0.03,0.52-0.03,0.78,0h2c1.85-0.22,3.53,1.11,3.75,2.97c0.03,0.26,0.03,0.52,0,0.78v2
		c0.22,1.85-1.11,3.53-2.97,3.75C7.52,22.88,7.25,22.88,6.99,22.85z M4.99,14.85c-1.58,0-2.25,0.67-2.25,2.25v2
		c0,1.58,0.67,2.25,2.25,2.25h2c1.58,0,2.25-0.67,2.25-2.25v-2c0-1.58-0.67-2.25-2.25-2.25H4.99z"/>
	<path id="Vector-5" class="st0" d="M-0.01,0.1h24v24h-24V0.1z"/>
</g>
</svg>
