<svg id="Layer_1" data-name="Layer 1" xmlns="http://www.w3.org/2000/svg" viewBox="0 0 24 24"><defs><style>.cls-1{fill:#fff;}.cls-2{fill:none;}</style></defs><g id="vuesax_outline_element-4" data-name="vuesax outline element-4"><g id="element-4"><path id="Vector" class="cls-1" d="M32.66,26.54h-4c-2,0-3-.93-3-2.85v-6.8c0-1.92,1-2.85,3-2.85h4c2,0,3,.93,3,2.85v6.8C35.64,25.61,34.66,26.54,32.66,26.54Zm-4-11c-1.27,0-1.48.34-1.48,1.35v6.8c0,1,.21,1.35,1.48,1.35h4c1.27,0,1.48-.34,1.48-1.35v-6.8c0-1-.21-1.35-1.48-1.35Z" transform="translate(-12.89 -12.79)"/><path id="Vector-2" class="cls-1" d="M32.66,35.54h-4c-2,0-3-.93-3-2.85v-1.8c0-1.92,1-2.85,3-2.85h4c2,0,3,.93,3,2.85v1.8C35.64,34.61,34.66,35.54,32.66,35.54Zm-4-6c-1.27,0-1.48.34-1.48,1.35v1.8c0,1,.21,1.35,1.48,1.35h4c1.27,0,1.48-.34,1.48-1.35v-1.8c0-1-.21-1.35-1.48-1.35Z" transform="translate(-12.89 -12.79)"/><path id="Vector-3" class="cls-1" d="M21.16,35.54h-4c-2,0-3-.93-3-2.85v-6.8c0-1.92,1-2.85,3-2.85h4c2,0,3,.93,3,2.85v6.8C24.14,34.61,23.16,35.54,21.16,35.54Zm-4-11c-1.27,0-1.48.34-1.48,1.35v6.8c0,1,.21,1.35,1.48,1.35h4c1.27,0,1.48-.34,1.48-1.35v-6.8c0-1-.21-1.35-1.48-1.35Z" transform="translate(-12.89 -12.79)"/><path id="Vector-4" class="cls-1" d="M21.16,21.54h-4c-2,0-3-.93-3-2.85v-1.8c0-1.92,1-2.85,3-2.85h4c2,0,3,.93,3,2.85v1.8C24.14,20.61,23.16,21.54,21.16,21.54Zm-4-6c-1.27,0-1.48.34-1.48,1.35v1.8c0,1,.21,1.35,1.48,1.35h4c1.27,0,1.48-.34,1.48-1.35v-1.8c0-1-.21-1.35-1.48-1.35Z" transform="translate(-12.89 -12.79)"/><path id="Vector-5" class="cls-2" d="M12.89,12.79h24v24h-24Z" transform="translate(-12.89 -12.79)"/></g></g></svg>