<svg id="Layer_1" data-name="Layer 1" xmlns="http://www.w3.org/2000/svg" viewBox="0 0 24 24"><defs><style>.cls-1{fill:#fff;}.cls-2{fill:none;}</style></defs><g id="vuesax_outline_frame" data-name="vuesax outline frame"><g id="frame"><path id="Vector" class="cls-1" d="M25.05,24.41H25a.54.54,0,0,0-.18,0,5.15,5.15,0,1,1,.29,0Zm-.16-8.87a3.69,3.69,0,0,0-.14,7.37,1.71,1.71,0,0,1,.32,0,3.69,3.69,0,0,0-.18-7.37Z" transform="translate(-12.89 -12.79)"/><path id="Vector-2" class="cls-2" d="M12.89,12.79h24v24h-24Z" transform="translate(-12.89 -12.79)"/><path id="Vector-3" class="cls-1" d="M25.06,35.34a9.82,9.82,0,0,1-5.42-1.5,4.28,4.28,0,0,1-2.15-3.55,4.34,4.34,0,0,1,2.15-3.57,10.59,10.59,0,0,1,10.84,0,4.31,4.31,0,0,1,2.15,3.55,4.32,4.32,0,0,1-2.15,3.57A9.78,9.78,0,0,1,25.06,35.34ZM20.47,28A2.9,2.9,0,0,0,19,30.3a2.87,2.87,0,0,0,1.48,2.3,9,9,0,0,0,9.18,0,2.84,2.84,0,0,0,1.48-2.32A2.88,2.88,0,0,0,29.65,28,9.08,9.08,0,0,0,20.47,28Z" transform="translate(-12.89 -12.79)"/></g></g></svg>